<svg xmlns="http://www.w3.org/2000/svg" viewBox="0 0 186 35" style="height: 40px;"><g fill="none" fill-rule="nonzero"><path fill="#8A8F93" d="M164.945 11.175c.767 0 1.166.4 1.166 1.198l-.03 17.715c0 .644.245 1.197.705 1.688.46.46 1.013.706 1.658.706.767 0 1.166.4 1.166 1.167q0 1.197-1.197 1.197c-1.29 0-2.394-.46-3.315-1.412-.92-.92-1.381-2.057-1.381-3.346l.03-17.715q0-1.198 1.198-1.198m13.627 7.123c.798 0 1.658.154 2.548.46 1.013.338 1.995.922 2.946 1.659 1.197.951 1.811 1.842 1.811 2.67 0 .43-.184.738-.583.952l-11.172 6.417c1.166 1.351 2.64 1.996 4.42 2.026 1.872 0 3.345-.675 4.45-2.026.154-.215.368-.522.675-.92.307-.4.645-.615.983-.615s.613.123.859.338c.215.276.338.552.338.86 0 .184-.062.399-.154.613-.675 1.26-1.657 2.242-3.008 3.01-1.35.736-2.732 1.135-4.174 1.104-2.271 0-4.236-.828-5.832-2.425-1.627-1.627-2.425-3.592-2.425-5.864s.83-4.237 2.456-5.833c1.627-1.628 3.56-2.426 5.862-2.426m-38.765-7.061c.767 0 1.166.399 1.166 1.197l-.03 8.29c1.626-1.658 3.59-2.487 5.923-2.487 2.302 0 4.236.829 5.863 2.425 1.565 1.627 2.363 3.562 2.363 5.864s-.829 4.237-2.425 5.864c-1.626 1.628-3.56 2.426-5.862 2.426-2.271 0-4.205-.83-5.832-2.426-1.596-1.627-2.424-3.561-2.394-5.864l.03-14.092q0-1.197 1.198-1.197m17.74 9.425c.369.123.799.215 1.228.215.4 0 .768-.061 1.136-.184l-.03 12.925c-.031.799-.4 1.198-1.198 1.198-.767 0-1.166-.4-1.166-1.198Zm-29.373-2.456c2.272 0 4.236.83 5.832 2.426 1.627 1.596 2.425 3.561 2.425 5.833 0 2.303-.829 4.237-2.456 5.864-1.626 1.627-3.56 2.425-5.862 2.425-2.271 0-4.236-.829-5.832-2.425-1.627-1.627-2.425-3.592-2.425-5.864s.83-4.237 2.456-5.833c1.627-1.628 3.56-2.426 5.862-2.426m-30.417-.03q1.197 0 1.197 1.197c1.044-.798 2.21-1.167 3.56-1.167q2.947 0 4.697 2.395c1.197-1.566 2.762-2.364 4.727-2.364 1.626 0 3.008.583 4.174 1.75s1.719 2.548 1.719 4.175v9.364q0 1.198-1.197 1.198c-.768 0-1.167-.4-1.167-1.198l.031-9.456c0-.982-.338-1.811-1.044-2.517-.705-.707-1.534-1.044-2.516-1.044-.983 0-1.811.337-2.517 1.044-.706.706-1.044 1.535-1.044 2.517l-.03 9.456q0 1.198-1.197 1.198c-.768 0-1.167-.4-1.167-1.198l.03-9.456c0-.982-.337-1.811-1.043-2.517-.706-.707-1.534-1.044-2.486-1.044-.982 0-1.81.337-2.517 1.044-.706.706-1.043 1.535-1.043 2.517l-.03 9.456q0 1.198-1.198 1.198c-.798 0-1.166-.4-1.166-1.198l.03-14.184c0-.767.4-1.167 1.197-1.167m49.079 2.394c-1.627 0-3.008.584-4.175 1.72-1.166 1.166-1.75 2.548-1.75 4.175s.584 3.04 1.72 4.175q1.749 1.75 4.143 1.75c1.627 0 3.008-.583 4.175-1.719 1.197-1.136 1.78-2.548 1.78-4.175 0-1.628-.583-3.01-1.72-4.176-1.165-1.166-2.547-1.75-4.173-1.75m-18.662-.03c-1.626 0-3.038.583-4.174 1.719-1.166 1.166-1.75 2.548-1.75 4.175s.584 3.04 1.72 4.176c1.166 1.166 2.547 1.75 4.174 1.75 1.626 0 3.038-.584 4.174-1.72 1.166-1.166 1.75-2.548 1.75-4.175s-.584-3.009-1.72-4.176c-1.166-1.166-2.547-1.75-4.174-1.75m50.337.122c-1.627 0-3.008.584-4.174 1.72-1.167 1.166-1.75 2.548-1.75 4.175 0 .645.092 1.29.307 1.904l10.037-5.772q-1.75-2.027-4.42-2.027"></path><path fill="#68AF85" d="M160.555 17.47c0 .49-.184.89-.521 1.227-.369.338-.768.522-1.259.522s-.92-.184-1.258-.522a1.74 1.74 0 0 1-.522-1.258c0-.492.184-.921.522-1.26.368-.337.767-.521 1.258-.521s.921.184 1.259.522c.368.368.521.798.521 1.29M86.77.154v8.75h6.598v4.206l-6.599.03V24.9c0 4.052 2.026 6.017 6.262 6.017h.337v3.807h-.337c-7.09 0-10.712-3.101-10.712-9.18V.154zM20.932 9.855c2.486-3.684 5.831-5.373 9.914-5.035 3.16.276 5.77 1.474 7.857 3.562 2.118 2.21 3.192 5.188 3.192 8.811V34.11h-4.604V16.763c0-2.088-.644-3.93-1.842-5.434-1.227-1.504-2.762-2.241-4.757-2.241-2.026 0-3.775.675-5.218 1.965-1.442 1.29-2.179 2.916-2.179 4.85V34.11h-4.635V15.904c0-1.935-.736-3.562-2.179-4.851-1.473-1.29-3.223-1.965-5.218-1.965s-3.53.737-4.696 2.21c-1.166 1.474-1.78 3.316-1.78 5.465V34.11H.184V17.193c0-3.623 1.044-6.6 3.13-8.811C5.25 6.294 7.858 5.096 11.02 4.82c4.082-.338 7.428 1.351 9.914 5.035m24.278 1.198a5.4 5.4 0 0 0 2.333.522c.767 0 1.473-.154 2.117-.43V34.11h-4.45Zm20.84-5.926c3.684 0 6.784 1.29 9.27 3.777 2.455 2.517 3.683 5.68 3.683 9.456v15.719h-4.45V17.96c0-2.272-.86-4.299-2.548-5.957-1.688-1.688-3.683-2.517-5.924-2.517-2.271 0-4.297.86-5.985 2.517s-2.547 3.654-2.547 5.957v16.118h-4.451v-15.72c0-3.776 1.228-6.969 3.683-9.455 2.456-2.518 5.556-3.777 9.27-3.777m-18.51-1.934a2.916 2.916 0 1 1 .005 5.833 2.916 2.916 0 0 1-.005-5.833"></path></g></svg>