<svg width="178" height="49" viewBox="0 0 178 49" fill="none" xmlns="http://www.w3.org/2000/svg">
<g clip-path="url(#clip0_229_14170)">
<path d="M24.5284 49C38.0746 49 49.0568 38.0305 49.0568 24.5C49.0568 10.9695 38.0746 0 24.5284 0C10.9822 0 0 10.9695 0 24.5C0 38.0305 10.9822 49 24.5284 49Z" fill="#D52B1E"/>
<path d="M19.0561 33.4834C16.2378 31.4523 13.529 29.2857 10.9347 26.9884C9.98057 29.0791 9.12535 31.2188 8.36742 33.4074C12.5045 36.9134 18.0373 40.9314 21.8311 43.1911C26.7531 30.4617 34.4329 22.1595 41.7808 16.3661C40.8381 14.3734 39.5569 12.5661 38.0141 11.0251C30.1813 17.0251 23.6838 24.6903 19.0561 33.4834Z" fill="white"/>
<path d="M56.0008 35.2417V32.2094H58.6556V27.8214H62.3839V32.2094H66.1776V35.2417H62.3839V42.2813C62.3839 43.637 62.7003 44.617 64.3732 44.617C64.8801 44.617 65.5448 44.5247 65.9863 44.301L66.1114 47.2679C65.4467 47.5186 64.4378 47.6762 63.5825 47.6762C59.5656 47.6762 58.6499 45.2156 58.6499 42.3083V35.2417H56.0008Z" fill="white"/>
<path d="M82.6828 47.3667H79.0796V44.933H79.0142C78.3494 46.4463 76.5507 47.8077 74.3047 47.8077C70.3532 47.8077 68.7065 44.7754 68.7065 41.6827V32.2094H72.5002V40.6104C72.5002 42.4128 72.909 44.6505 75.3455 44.6505C77.782 44.6505 78.8882 42.5655 78.8882 40.5451V32.2094H82.682V47.3667H82.6828Z" fill="white"/>
<path d="M86.6074 31.926H90.2425V34.4519H90.3079C91.1312 32.7149 92.7444 31.485 94.7345 31.485C95.0174 31.485 95.3992 31.5176 95.6502 31.5773V35.0505C95.1433 34.9256 94.8268 34.8929 94.4777 34.8929C91.0658 34.8929 90.4011 37.8599 90.4011 38.9656V47.0833H86.6074V31.926Z" fill="white"/>
<path d="M101.907 23.4931V34.1367H102C102.79 33.1567 104.305 31.7684 107.091 31.7684C111.424 31.7684 114.455 35.2417 114.455 39.7284C114.455 44.2152 111.61 47.8134 106.993 47.8134C104.873 47.8134 102.817 46.8334 101.777 45.0964H101.711V47.3724H98.1079V23.498H101.907V23.4923V23.4931ZM106.235 34.8611C103.455 34.8611 101.777 37.4197 101.777 39.7881C101.777 42.1564 103.45 44.6497 106.235 44.6497C109.173 44.6497 110.596 42.0911 110.596 39.7227C110.601 37.3544 109.178 34.8611 106.235 34.8611Z" fill="white"/>
<path d="M124.353 31.7683C128.938 31.7683 132.606 34.9591 132.606 39.7284C132.606 44.4977 128.938 47.8134 124.353 47.8134C119.769 47.8134 116.101 44.4977 116.101 39.7284C116.101 34.9591 119.77 31.7683 124.353 31.7683ZM124.353 44.6496C127.357 44.6496 128.747 42.091 128.747 39.7227C128.747 37.3543 127.357 34.8611 124.353 34.8611C121.349 34.8611 119.96 37.3543 119.96 39.7227C119.96 42.091 121.35 44.6496 124.353 44.6496Z" fill="white"/>
<path d="M133.391 35.2417V32.2094H136.045V27.8214H139.773V32.2094H143.567V35.2417H139.773V42.2813C139.773 43.637 140.09 44.617 141.764 44.617C142.27 44.617 142.935 44.5247 143.377 44.301L143.502 47.2679C142.837 47.5186 141.829 47.6762 140.973 47.6762C136.956 47.6762 136.04 45.2156 136.04 42.3083V35.2417H133.391Z" fill="white"/>
<path d="M156.06 45.4393H155.968C155.21 46.7681 153.406 47.7423 151.258 47.7423C148.822 47.7423 145.568 46.5721 145.568 43.0383C145.568 38.5246 151.258 37.8933 156.001 37.8933V37.512C156.001 35.65 154.42 34.7353 152.523 34.7353C150.909 34.7353 149.362 35.4923 148.38 36.4723L146.418 34.1693C148.125 32.5907 150.528 31.7683 152.834 31.7683C158.274 31.7683 159.598 35.1167 159.598 38.149V47.3716H156.055V45.4385H156.06V45.4393ZM155.995 40.452H155.14C152.736 40.452 149.356 40.7353 149.356 42.9779C149.356 44.4316 150.713 44.8726 152.011 44.8726C154.605 44.8726 155.995 43.3862 155.995 40.991V40.452Z" fill="white"/>
<path d="M166.842 39.3144L161.375 32.2094H165.926L169.213 36.9134L172.598 32.2094H176.959L171.519 39.3144L177.716 47.3667H173.099L169.148 41.8403L165.164 47.3667H160.672L166.842 39.3144Z" fill="white"/>
<path d="M97.5683 11.3737C97.5683 15.2177 100.648 18.0271 104.562 18.0271C108.476 18.0271 111.561 15.2234 111.561 11.3737V2.54794H107.767V10.9212C107.767 12.9956 106.377 14.3839 104.551 14.3839C102.724 14.3839 101.335 12.9956 101.335 10.9212V2.54794H97.547L97.5683 11.3737Z" fill="white"/>
<path d="M121.688 6.09228H126.213V17.7216H130.001V6.09228H134.519V2.54794H121.688V6.09228Z" fill="white"/>
<path d="M119.241 2.55369H115.453V17.7274H119.241V2.55369Z" fill="white"/>
<path d="M82.2625 6.09228H86.7872V17.7216H90.5752V6.09228H95.0941V2.54794H82.2625V6.09228Z" fill="white"/>
<path d="M62.3839 2.55369H58.5959V17.7274H62.3839V2.55369Z" fill="white"/>
<path d="M80.2676 8.8959C80.2676 5.05185 77.1827 2.24252 73.2688 2.24252C69.3549 2.24252 66.2701 5.04614 66.2701 8.8959V17.7216H70.0581V9.34834C70.0581 7.274 71.448 5.88567 73.2737 5.88567C75.0995 5.88567 76.4894 7.274 76.4894 9.34834V17.7216H80.2774L80.2668 8.8959H80.2676Z" fill="white"/>
</g>
<defs>
<clipPath id="clip0_229_14170">
<rect width="177.502" height="48.9408" fill="white" transform="scale(1.00121)"/>
</clipPath>
</defs>
</svg>
